<?xml version="1.0" encoding="UTF-8" standalone="no"?>
<!DOCTYPE svg PUBLIC "-//W3C//DTD SVG 1.1//EN"
 "http://www.w3.org/Graphics/SVG/1.1/DTD/svg11.dtd">
<!-- Generated by graphviz version 2.26.3 (20100126.1600)
 -->
<!-- Title: fsm Pages: 1 -->
<svg width="595pt" height="414pt"
 viewBox="0.00 0.00 594.71 414.00" xmlns="http://www.w3.org/2000/svg" xmlns:xlink="http://www.w3.org/1999/xlink">
<g id="graph1" class="graph" transform="scale(1 1) rotate(0) translate(4 410)">
<title>fsm</title>
<polygon fill="white" stroke="white" points="-4,5 -4,-410 591.707,-410 591.707,5 -4,5"/>
<!-- waiting -->
<g id="node1" class="node"><title>waiting</title>
<ellipse fill="none" stroke="black" cx="161.707" cy="-203" rx="48.0833" ry="18.3848"/>
<text text-anchor="middle" x="161.707" y="-199.4" font-family="Times Roman,serif" font-size="14.00">waiting</text>
</g>
<!-- waiting&#45;&gt;waiting -->
<g id="edge12" class="edge"><title>waiting&#45;&gt;waiting</title>
<path fill="none" stroke="black" d="M204.238,-211.617C217.384,-211.443 227.707,-208.57 227.707,-203 227.707,-198.953 222.257,-196.33 214.235,-195.131"/>
<polygon fill="black" stroke="black" points="214.471,-191.639 204.238,-194.383 213.949,-198.62 214.471,-191.639"/>
<text text-anchor="middle" x="246.207" y="-199.4" font-family="Times Roman,serif" font-size="14.00">failed</text>
</g>
<!-- pending -->
<g id="node3" class="node"><title>pending</title>
<ellipse fill="none" stroke="black" cx="289.707" cy="-111" rx="50.2046" ry="18.3848"/>
<text text-anchor="middle" x="289.707" y="-107.4" font-family="Times Roman,serif" font-size="14.00">pending</text>
</g>
<!-- waiting&#45;&gt;pending -->
<g id="edge2" class="edge"><title>waiting&#45;&gt;pending</title>
<path fill="none" stroke="black" d="M184.591,-186.552C205.123,-171.795 235.445,-150.001 258.252,-133.608"/>
<polygon fill="black" stroke="black" points="260.512,-136.294 266.59,-127.616 256.427,-130.61 260.512,-136.294"/>
<text text-anchor="middle" x="261.707" y="-153.4" font-family="Times Roman,serif" font-size="14.00">started</text>
</g>
<!-- failure -->
<g id="node10" class="node"><title>failure</title>
<ellipse fill="none" stroke="black" cx="125.707" cy="-19" rx="41.9273" ry="18.3848"/>
<text text-anchor="middle" x="125.707" y="-15.4" font-family="Times Roman,serif" font-size="14.00">failure</text>
</g>
<!-- waiting&#45;&gt;failure -->
<g id="edge22" class="edge"><title>waiting&#45;&gt;failure</title>
<path fill="none" stroke="black" d="M146.761,-185.152C136.061,-171.146 122.554,-150.626 116.707,-130 108.969,-102.701 113.061,-70.2225 117.962,-47.4744"/>
<polygon fill="black" stroke="black" points="121.435,-47.9926 120.308,-37.4579 114.62,-46.3964 121.435,-47.9926"/>
<text text-anchor="middle" x="173.707" y="-107.4" font-family="Times Roman,serif" font-size="14.00">waiting_timeout</text>
</g>
<!-- pending&#45;&gt;pending -->
<g id="edge4" class="edge"><title>pending&#45;&gt;pending</title>
<path fill="none" stroke="black" d="M338.608,-115.207C349.639,-114.828 357.707,-113.426 357.707,-111 357.707,-109.408 354.232,-108.257 348.726,-107.546"/>
<polygon fill="black" stroke="black" points="348.84,-104.045 338.608,-106.793 348.32,-111.026 348.84,-104.045"/>
<text text-anchor="middle" x="382.707" y="-107.4" font-family="Times Roman,serif" font-size="14.00">started</text>
</g>
<!-- pending&#45;&gt;pending -->
<g id="edge24" class="edge"><title>pending&#45;&gt;pending</title>
<path fill="none" stroke="black" d="M322.876,-124.964C359.785,-133.05 407.707,-128.395 407.707,-111 407.707,-95.1678 368.009,-89.8897 333.048,-95.1655"/>
<polygon fill="black" stroke="black" points="332.078,-91.7852 322.876,-97.0364 333.344,-98.6697 332.078,-91.7852"/>
<text text-anchor="middle" x="464.707" y="-107.4" font-family="Times Roman,serif" font-size="14.00">waiting_timeout</text>
</g>
<!-- pending&#45;&gt;failure -->
<g id="edge10" class="edge"><title>pending&#45;&gt;failure</title>
<path fill="none" stroke="black" d="M251.234,-99.1593C242.847,-96.6956 234.001,-94.1858 225.707,-92 191.304,-82.933 174.722,-97.1515 147.707,-74 139.767,-67.1954 134.664,-57.1195 131.396,-47.4445"/>
<polygon fill="black" stroke="black" points="134.716,-46.3222 128.614,-37.6611 127.983,-48.2372 134.716,-46.3222"/>
<text text-anchor="middle" x="206.207" y="-61.4" font-family="Times Roman,serif" font-size="14.00">pending_timeout</text>
</g>
<!-- pending&#45;&gt;failure -->
<g id="edge14" class="edge"><title>pending&#45;&gt;failure</title>
<path fill="none" stroke="black" d="M285.635,-92.4118C282.066,-80.3799 275.677,-65.2809 264.707,-56 251.086,-44.4764 209.363,-34.2894 175.154,-27.5372"/>
<polygon fill="black" stroke="black" points="175.758,-24.0893 165.277,-25.64 174.438,-30.9636 175.758,-24.0893"/>
<text text-anchor="middle" x="295.207" y="-61.4" font-family="Times Roman,serif" font-size="14.00">failed</text>
</g>
<!-- success -->
<g id="node14" class="node"><title>success</title>
<ellipse fill="none" stroke="black" cx="494.707" cy="-19" rx="48.0833" ry="18.3848"/>
<text text-anchor="middle" x="494.707" y="-15.4" font-family="Times Roman,serif" font-size="14.00">success</text>
</g>
<!-- pending&#45;&gt;success -->
<g id="edge18" class="edge"><title>pending&#45;&gt;success</title>
<path fill="none" stroke="black" d="M321.738,-96.625C357.346,-80.645 414.944,-54.796 453.79,-37.3629"/>
<polygon fill="black" stroke="black" points="455.547,-40.4108 463.237,-33.1231 452.681,-34.0244 455.547,-40.4108"/>
<text text-anchor="middle" x="436.707" y="-61.4" font-family="Times Roman,serif" font-size="14.00">finished</text>
</g>
<!-- none -->
<g id="node5" class="node"><title>none</title>
<ellipse fill="none" stroke="black" cx="161.707" cy="-387" rx="36.0624" ry="18.3848"/>
<text text-anchor="middle" x="161.707" y="-383.4" font-family="Times Roman,serif" font-size="14.00">none</text>
</g>
<!-- idle -->
<g id="node7" class="node"><title>idle</title>
<ellipse fill="none" stroke="black" cx="161.707" cy="-295" rx="28.9914" ry="18.3848"/>
<text text-anchor="middle" x="161.707" y="-291.4" font-family="Times Roman,serif" font-size="14.00">idle</text>
</g>
<!-- none&#45;&gt;idle -->
<g id="edge6" class="edge"><title>none&#45;&gt;idle</title>
<path fill="none" stroke="black" d="M161.707,-368.382C161.707,-355.538 161.707,-338.216 161.707,-323.627"/>
<polygon fill="black" stroke="black" points="165.207,-323.59 161.707,-313.59 158.207,-323.59 165.207,-323.59"/>
<text text-anchor="middle" x="187.207" y="-337.4" font-family="Times Roman,serif" font-size="14.00">startup</text>
</g>
<!-- idle&#45;&gt;waiting -->
<g id="edge8" class="edge"><title>idle&#45;&gt;waiting</title>
<path fill="none" stroke="black" d="M161.707,-276.382C161.707,-263.538 161.707,-246.216 161.707,-231.627"/>
<polygon fill="black" stroke="black" points="165.207,-231.59 161.707,-221.59 158.207,-231.59 165.207,-231.59"/>
<text text-anchor="middle" x="188.207" y="-245.4" font-family="Times Roman,serif" font-size="14.00">request</text>
</g>
<!-- idle&#45;&gt;failure -->
<g id="edge20" class="edge"><title>idle&#45;&gt;failure</title>
<path fill="none" stroke="black" d="M138.164,-284.012C101.787,-265.552 33.2458,-224.507 5.707,-166 -18.8384,-113.852 46.2065,-64.3271 89.8551,-38.1939"/>
<polygon fill="black" stroke="black" points="91.6597,-41.1932 98.5354,-33.1325 88.1337,-35.1461 91.6597,-41.1932"/>
<text text-anchor="middle" x="62.707" y="-153.4" font-family="Times Roman,serif" font-size="14.00">waiting_timeout</text>
</g>
<!-- idle&#45;&gt;success -->
<g id="edge16" class="edge"><title>idle&#45;&gt;success</title>
<path fill="none" stroke="black" d="M190.737,-292.942C265.716,-285.878 465.762,-255.533 548.707,-130 567.175,-102.049 542.951,-66.8427 521.289,-43.6653"/>
<polygon fill="black" stroke="black" points="523.592,-41.0134 514.106,-36.2941 518.578,-45.8987 523.592,-41.0134"/>
<text text-anchor="middle" x="559.707" y="-153.4" font-family="Times Roman,serif" font-size="14.00">finished</text>
</g>
</g>
</svg>
